<svg id="svg" version="1.1" xmlns="http://www.w3.org/2000/svg" xmlns:xlink="http://www.w3.org/1999/xlink" width="400" height="400" viewBox="0, 0, 400,400"><g id="svgg"><path id="path0" d="M43.700 27.491 C 44.525 27.578,45.875 27.578,46.700 27.491 C 47.525 27.405,46.850 27.334,45.200 27.334 C 43.550 27.334,42.875 27.405,43.700 27.491 M135.500 27.500 C 174.055 27.556,237.145 27.556,275.700 27.500 C 314.255 27.444,282.710 27.398,205.600 27.398 C 128.490 27.398,96.945 27.444,135.500 27.500 M352.700 27.482 C 353.195 27.578,354.005 27.578,354.500 27.482 C 354.995 27.387,354.590 27.309,353.600 27.309 C 352.610 27.309,352.205 27.387,352.700 27.482 M151.067 149.867 C 150.920 150.013,150.800 197.422,150.800 255.220 L 150.800 360.307 151.700 360.548 C 152.918 360.874,237.679 360.864,244.100 360.537 L 249.200 360.277 249.200 255.181 C 249.200 159.717,249.142 150.063,248.567 149.843 C 247.700 149.510,151.400 149.534,151.067 149.867 M168.500 359.093 C 167.565 359.177,166.035 359.177,165.100 359.093 C 164.165 359.009,164.930 358.940,166.800 358.940 C 168.670 358.940,169.435 359.009,168.500 359.093 M217.900 359.100 C 210.255 359.161,197.745 359.161,190.100 359.100 C 182.455 359.039,188.710 358.989,204.000 358.989 C 219.290 358.989,225.545 359.039,217.900 359.100 " stroke="none" fill="#fcdc5c" fill-rule="evenodd"></path><path id="path1" d="M39.600 88.800 L 39.600 150.000 95.176 150.000 C 131.796 150.000,150.837 149.864,151.000 149.600 C 151.342 149.047,248.658 149.047,249.000 149.600 C 249.163 149.864,268.204 150.000,304.824 150.000 L 360.400 150.000 360.400 88.800 L 360.400 27.600 200.000 27.600 L 39.600 27.600 39.600 88.800 " stroke="none" fill="#fc944c" fill-rule="evenodd"></path><path id="path2" d="M165.100 359.093 C 166.035 359.177,167.565 359.177,168.500 359.093 C 169.435 359.009,168.670 358.940,166.800 358.940 C 164.930 358.940,164.165 359.009,165.100 359.093 M190.100 359.100 C 197.745 359.161,210.255 359.161,217.900 359.100 C 225.545 359.039,219.290 358.989,204.000 358.989 C 188.710 358.989,182.455 359.039,190.100 359.100 " stroke="none" fill="#fce054" fill-rule="evenodd"></path><path id="path3" d="M175.731 149.500 C 189.113 149.558,210.893 149.558,224.131 149.500 C 237.369 149.441,226.420 149.394,199.800 149.394 C 173.180 149.394,162.349 149.442,175.731 149.500 " stroke="none" fill="#fca854" fill-rule="evenodd"></path><path id="path4" d="" stroke="none" fill="#fc9458" fill-rule="evenodd"></path></g></svg>